<svg width="20" height="20" viewBox="0 0 20 20" fill="none" xmlns="http://www.w3.org/2000/svg">
<path fill-rule="evenodd" clip-rule="evenodd" d="M2.5 3.33333C2.5 2.8731 2.8731 2.5 3.33333 2.5H8.33333C8.79357 2.5 9.16667 2.8731 9.16667 3.33333V8.33333C9.16667 8.79357 8.79357 9.16667 8.33333 9.16667H3.33333C2.8731 9.16667 2.5 8.79357 2.5 8.33333V3.33333ZM3.75 6.66667V3.75H7.91667V6.66667H3.75Z" fill="#1F1F1F"/>
<path fill-rule="evenodd" clip-rule="evenodd" d="M2.5 11.6667C2.5 11.2064 2.8731 10.8333 3.33333 10.8333H8.33333C8.79357 10.8333 9.16667 11.2064 9.16667 11.6667V16.6667C9.16667 17.1269 8.79357 17.5 8.33333 17.5H3.33333C2.8731 17.5 2.5 17.1269 2.5 16.6667V11.6667ZM3.75 15V12.0833H7.91667V15H3.75Z" fill="#1F1F1F"/>
<path fill-rule="evenodd" clip-rule="evenodd" d="M11.6667 2.5C11.2064 2.5 10.8333 2.8731 10.8333 3.33333V8.33333C10.8333 8.79357 11.2064 9.16667 11.6667 9.16667H16.6667C17.1269 9.16667 17.5 8.79357 17.5 8.33333V3.33333C17.5 2.8731 17.1269 2.5 16.6667 2.5H11.6667ZM12.0833 3.75V6.66667H16.25V3.75H12.0833Z" fill="#1F1F1F"/>
<path fill-rule="evenodd" clip-rule="evenodd" d="M10.8333 11.6667C10.8333 11.2064 11.2064 10.8333 11.6667 10.8333H16.6667C17.1269 10.8333 17.5 11.2064 17.5 11.6667V16.6667C17.5 17.1269 17.1269 17.5 16.6667 17.5H11.6667C11.2064 17.5 10.8333 17.1269 10.8333 16.6667V11.6667ZM12.0833 15V12.0833H16.25V15H12.0833Z" fill="#1F1F1F"/>
</svg>
