<svg width="20" height="20" viewBox="0 0 20 20" fill="none" xmlns="http://www.w3.org/2000/svg">
<path d="M16.0144 15.1228C9.26775 18.3337 5.08071 15.6472 2.40045 14.0156C2.2346 13.9127 1.95271 14.0396 2.19729 14.3206C3.09022 15.4032 6.01652 18.0129 9.83621 18.0129C13.6585 18.0129 15.9325 15.9272 16.2169 15.5634C16.4994 15.2026 16.2999 15.0036 16.0144 15.1228ZM17.9092 14.0764C17.728 13.8405 16.8075 13.7965 16.2282 13.8677C15.648 13.9368 14.7771 14.2914 14.8528 14.5043C14.8917 14.584 14.971 14.5483 15.3696 14.5124C15.7692 14.4726 16.8888 14.3313 17.1221 14.6362C17.3565 14.9433 16.765 16.4062 16.657 16.6421C16.5527 16.878 16.6969 16.9389 16.8929 16.7817C17.0863 16.6247 17.4363 16.2179 17.6712 15.6422C17.9045 15.0635 18.0469 14.2561 17.9092 14.0764Z" fill="#FF9900"/>
<path fill-rule="evenodd" clip-rule="evenodd" d="M11.478 8.57115C11.478 9.41362 11.4993 10.1162 11.0735 10.8644C10.7298 11.4727 10.1854 11.8468 9.57708 11.8468C8.74672 11.8468 8.26314 11.2142 8.26314 10.2805C8.26314 8.43729 9.91462 8.10276 11.478 8.10276V8.57115ZM13.6587 13.842C13.5158 13.9697 13.3089 13.9789 13.1478 13.8937C12.43 13.2976 12.3022 13.0208 11.9068 12.4521C10.7207 13.6626 9.88122 14.0245 8.34225 14.0245C6.52344 14.0245 5.1061 12.9022 5.1061 10.6545C5.1061 8.89965 6.05813 7.70431 7.4115 7.1204C8.58555 6.60329 10.2249 6.51206 11.478 6.36915V6.08931C11.478 5.57528 11.5175 4.967 11.2164 4.52297C10.9518 4.12453 10.4469 3.96028 10.0028 3.96028C9.17863 3.96028 8.44258 4.38302 8.26314 5.25896C8.2266 5.45366 8.08369 5.64529 7.88906 5.65439L5.79041 5.42936C5.61404 5.38974 5.4194 5.24684 5.46806 4.9761C5.95165 2.43349 8.24788 1.66699 10.3039 1.66699C11.3563 1.66699 12.731 1.94683 13.5613 2.74372C14.6137 3.72608 14.5133 5.03695 14.5133 6.4634V9.83335C14.5133 10.8462 14.933 11.2902 15.3284 11.8377C15.4683 12.0323 15.4987 12.2666 15.3223 12.4125C14.8813 12.7805 14.0966 13.4649 13.6647 13.8481L13.6587 13.842Z" fill="black"/>
<path d="M16.0144 15.1228C9.26775 18.3337 5.08071 15.6472 2.40045 14.0156C2.2346 13.9127 1.95271 14.0396 2.19729 14.3206C3.09022 15.4032 6.01652 18.0129 9.83621 18.0129C13.6585 18.0129 15.9325 15.9272 16.2169 15.5634C16.4994 15.2026 16.2999 15.0036 16.0144 15.1228ZM17.9092 14.0764C17.728 13.8405 16.8075 13.7965 16.2282 13.8677C15.648 13.9368 14.7771 14.2914 14.8528 14.5043C14.8917 14.584 14.971 14.5483 15.3696 14.5124C15.7692 14.4726 16.8888 14.3313 17.1221 14.6362C17.3565 14.9433 16.765 16.4062 16.657 16.6421C16.5527 16.878 16.6969 16.9389 16.8929 16.7817C17.0863 16.6247 17.4363 16.2179 17.6712 15.6422C17.9045 15.0635 18.0469 14.2561 17.9092 14.0764Z" fill="#FF9900"/>
<path fill-rule="evenodd" clip-rule="evenodd" d="M11.478 8.57115C11.478 9.41362 11.4993 10.1162 11.0735 10.8644C10.7298 11.4727 10.1854 11.8468 9.57708 11.8468C8.74672 11.8468 8.26314 11.2142 8.26314 10.2805C8.26314 8.43729 9.91462 8.10276 11.478 8.10276V8.57115ZM13.6587 13.842C13.5158 13.9697 13.3089 13.9789 13.1478 13.8937C12.43 13.2976 12.3022 13.0208 11.9068 12.4521C10.7207 13.6626 9.88122 14.0245 8.34225 14.0245C6.52344 14.0245 5.1061 12.9022 5.1061 10.6545C5.1061 8.89965 6.05813 7.70431 7.4115 7.1204C8.58555 6.60329 10.2249 6.51206 11.478 6.36915V6.08931C11.478 5.57528 11.5175 4.967 11.2164 4.52297C10.9518 4.12453 10.4469 3.96028 10.0028 3.96028C9.17863 3.96028 8.44258 4.38302 8.26314 5.25896C8.2266 5.45366 8.08369 5.64529 7.88906 5.65439L5.79041 5.42936C5.61404 5.38974 5.4194 5.24684 5.46806 4.9761C5.95165 2.43349 8.24788 1.66699 10.3039 1.66699C11.3563 1.66699 12.731 1.94683 13.5613 2.74372C14.6137 3.72608 14.5133 5.03695 14.5133 6.4634V9.83335C14.5133 10.8462 14.933 11.2902 15.3284 11.8377C15.4683 12.0323 15.4987 12.2666 15.3223 12.4125C14.8813 12.7805 14.0966 13.4649 13.6647 13.8481L13.6587 13.842Z" fill="black"/>
</svg>
