<svg width="20" height="20" viewBox="0 0 20 20" fill="none" xmlns="http://www.w3.org/2000/svg">
<path fill-rule="evenodd" clip-rule="evenodd" d="M8.33317 13.3331L12.3332 16.3331C13.4319 17.1571 14.9998 16.3732 14.9998 14.9998V4.99977C14.9998 3.62636 13.4319 2.84239 12.3332 3.66644L8.33317 6.66644H4.1665C2.78579 6.66644 1.6665 7.78573 1.6665 9.16644V10.8331C1.6665 12.2138 2.78579 13.3331 4.1665 13.3331H5.83317V16.6663C5.83317 17.1265 6.20627 17.4996 6.6665 17.4996C7.12674 17.4996 7.49984 17.1265 7.49984 16.6663V13.3331H8.33317ZM8.88873 8.3331H4.1665C3.70627 8.3331 3.33317 8.7062 3.33317 9.16644V10.8331C3.33317 11.2933 3.70627 11.6664 4.1665 11.6664H8.88873L13.3332 14.9998V4.99977L8.88873 8.3331Z" fill="#1F1F1F"/>
<path d="M16.6665 5.83293C17.6975 6.88505 18.3332 8.32598 18.3332 9.91542C18.3332 11.5048 17.6975 13.1141 16.6665 14.1663V5.83293Z" fill="#1F1F1F"/>
</svg>
