<svg width="20" height="20" viewBox="0 0 20 20" fill="none" xmlns="http://www.w3.org/2000/svg">
<g clip-path="url(#clip0_1116_6744)">
<path d="M17.1393 8.48818C17.5174 7.35328 17.3872 6.11005 16.7825 5.07776C15.8731 3.49443 14.045 2.67985 12.2596 3.06318C11.4653 2.16839 10.3242 1.65953 9.12781 1.66683C7.30281 1.66266 5.68354 2.83766 5.12208 4.57412C3.94968 4.81422 2.93771 5.54808 2.34552 6.58818C1.42937 8.16735 1.63823 10.158 2.86218 11.5121C2.48406 12.647 2.61427 13.8903 3.21896 14.9226C4.12833 16.5059 5.95646 17.3205 7.74187 16.9371C8.53562 17.8319 9.67729 18.3408 10.8736 18.333C12.6997 18.3377 14.3195 17.1616 14.8809 15.4236C16.0533 15.1835 17.0653 14.4496 17.6575 13.4095C18.5726 11.8304 18.3632 9.8413 17.1398 8.48714L17.1393 8.48818ZM10.8747 17.2439C10.144 17.2449 9.43614 16.9892 8.87521 16.521C8.90073 16.5075 8.945 16.483 8.97364 16.4653L12.2924 14.5486C12.4622 14.4522 12.5664 14.2715 12.5653 14.0762V9.39755L13.9679 10.2074C13.983 10.2147 13.9929 10.2293 13.995 10.246V14.1205C13.9929 15.8434 12.5976 17.2403 10.8747 17.2439ZM4.16427 14.3778C3.79812 13.7455 3.66635 13.0043 3.79187 12.2851C3.81635 12.2996 3.85958 12.3262 3.89031 12.3439L7.20906 14.2606C7.37729 14.359 7.58562 14.359 7.75437 14.2606L11.8059 11.921V13.5408C11.807 13.5574 11.7992 13.5736 11.7861 13.584L8.43146 15.521C6.93718 16.3814 5.02885 15.8699 4.16479 14.3778H4.16427ZM3.29083 7.13349C3.65541 6.50016 4.23093 6.01578 4.91635 5.76422C4.91635 5.79287 4.91479 5.84339 4.91479 5.8788V9.71266C4.91375 9.90745 5.01791 10.0882 5.18718 10.1845L9.23875 12.5236L7.83614 13.3335C7.82208 13.3429 7.80437 13.3444 7.78875 13.3377L4.43354 11.3991C2.94239 10.5356 2.43093 8.62776 3.29031 7.13401L3.29083 7.13349ZM14.8148 9.81526L10.7632 7.47568L12.1658 6.6663C12.1799 6.65693 12.1976 6.65537 12.2132 6.66214L15.5684 8.59912C17.0622 9.46214 17.5742 11.3731 16.7111 12.8668C16.346 13.4991 15.771 13.9835 15.0861 14.2356V10.2871C15.0877 10.0923 14.9841 9.91214 14.8153 9.81526H14.8148ZM16.2106 7.71422C16.1861 7.69912 16.1429 7.67308 16.1122 7.65537L12.7934 5.7387C12.6252 5.64026 12.4169 5.64026 12.2481 5.7387L8.19656 8.07828V6.45849C8.19552 6.44183 8.20333 6.42568 8.21635 6.41526L11.571 4.47985C13.0653 3.61787 14.9757 4.13089 15.8372 5.62568C16.2012 6.25693 16.333 6.99599 16.2096 7.71422H16.2106ZM7.43406 10.6012L6.03093 9.7913C6.01583 9.78401 6.00593 9.76943 6.00385 9.75276V5.87828C6.00489 4.15328 7.40437 2.75537 9.12937 2.75641C9.85906 2.75641 10.5653 3.01266 11.1262 3.47933C11.1007 3.49287 11.057 3.51735 11.0278 3.53505L7.70906 5.45172C7.53927 5.54808 7.4351 5.72828 7.43614 5.9236L7.43406 10.6002V10.6012ZM8.19604 8.95849L10.0007 7.9163L11.8054 8.95797V11.0418L10.0007 12.0835L8.19604 11.0418V8.95849Z" fill="#292929"/>
</g>
<defs>
<clipPath id="clip0_1116_6744">
<rect width="16.6667" height="16.6667" fill="white" transform="translate(1.66699 1.66675)"/>
</clipPath>
</defs>
</svg>
