<svg width="20" height="20" viewBox="0 0 20 20" fill="none" xmlns="http://www.w3.org/2000/svg">
<path d="M3.14879 12.0361C3.12541 12.5552 3.24118 13.0711 3.4841 13.5304C3.73193 13.9386 4.11098 14.1135 4.49002 14.1135C4.9857 14.1135 5.43764 13.9823 6.30507 12.7869C6.99755 11.8174 7.82125 10.4689 8.36795 9.62331L9.30098 8.18732C9.95702 7.18868 10.7078 6.07341 11.5607 5.3299C12.275 4.7176 13.0331 4.375 13.7912 4.375C15.0741 4.375 16.2914 5.11851 17.2318 6.51077C18.26 8.13256 18.7873 10.0215 18.7479 11.9413C18.7479 13.1222 18.5147 13.9823 18.1211 14.6748C17.8826 15.0918 17.5342 15.4354 17.1139 15.6681C16.6936 15.9007 16.2175 16.0135 15.7375 15.9942V14.1062C16.8163 14.1062 17.0787 13.1222 17.0787 11.9923C17.0787 10.3887 16.7069 8.60281 15.8832 7.32718C15.3001 6.4233 14.5347 5.86931 13.6964 5.86931C12.7999 5.86931 12.0709 6.55451 11.2545 7.76454C10.8172 8.42057 10.3725 9.20053 9.86955 10.0898L9.32285 11.0666C8.75398 12.1636 8.1034 13.2162 7.3766 14.2156C6.40712 15.5058 5.58342 15.9942 4.49002 15.9942C3.19252 15.9942 2.37612 15.4329 1.86587 14.5873C1.43091 13.7857 1.21943 12.8819 1.25356 11.9705L3.14879 12.0434V12.0361Z" fill="#0081FB"/>
<path d="M2.74059 6.64198C3.61531 5.30803 4.85449 4.375 6.29049 4.375C7.12147 4.375 7.95245 4.62284 8.81259 5.32261C9.76021 6.09528 10.7588 7.36362 12.0199 9.44837L12.4573 10.1992C13.0823 11.2995 13.7736 12.3608 14.5274 13.3773C14.9939 13.9386 15.3147 14.1062 15.7375 14.1062C16.8163 14.1062 17.0787 13.1222 17.0787 11.9923L18.7479 11.9413C18.7479 13.1222 18.5147 13.9823 18.1211 14.6748C17.8826 15.0918 17.5342 15.4354 17.1139 15.6681C16.6936 15.9007 16.2175 16.0135 15.7375 15.9942C15.3242 16.01 14.9121 15.9391 14.5279 15.7859C14.1437 15.6328 13.7959 15.4008 13.5069 15.1049C12.8109 14.3768 12.2063 13.5666 11.7065 12.6921L10.1393 10.068C9.5843 9.09659 8.94005 8.17903 8.21487 7.32718C7.76293 6.85337 7.18707 6.27751 6.26133 6.27751C5.51782 6.27751 4.87636 6.80234 4.35153 7.59688L2.74788 6.64927L2.74059 6.64198Z" fill="url(#paint0_linear_1116_6688)"/>
<path d="M6.26133 6.27022C5.51782 6.27022 4.87636 6.80234 4.35153 7.59688C3.54287 8.93782 3.12386 10.4776 3.1415 12.0434C3.12167 12.5607 3.23992 13.0739 3.4841 13.5304L1.87316 14.5801C1.43694 13.7813 1.22298 12.8801 1.25356 11.9705C1.25356 10.0971 1.76382 8.15087 2.74059 6.64927C3.61531 5.30074 4.85449 4.375 6.29049 4.375L6.26133 6.27022Z" fill="url(#paint1_linear_1116_6688)"/>
<defs>
<linearGradient id="paint0_linear_1116_6688" x1="3.68056" y1="11.4894" x2="16.8468" y2="12.2208" gradientUnits="userSpaceOnUse">
<stop stop-color="#0064E1"/>
<stop offset="0.4" stop-color="#0064E1"/>
<stop offset="0.83" stop-color="#0073EE"/>
<stop offset="1" stop-color="#0082FB"/>
</linearGradient>
<linearGradient id="paint1_linear_1116_6688" x1="3.99435" y1="12.8306" x2="3.99435" y2="8.39142" gradientUnits="userSpaceOnUse">
<stop stop-color="#0082FB"/>
<stop offset="1" stop-color="#0064E0"/>
</linearGradient>
</defs>
</svg>
