<svg width="20" height="20" viewBox="0 0 20 20" fill="none" xmlns="http://www.w3.org/2000/svg">
<circle cx="10" cy="10" r="8.75" fill="white"/>
<path d="M10 18.75C14.8325 18.75 18.75 14.8325 18.75 10C18.75 5.16751 14.8325 1.25 10 1.25C5.16751 1.25 1.25 5.16751 1.25 10C1.25 13.5501 3.36418 16.6064 6.40217 17.9785C6.40625 17.8838 6.41084 17.797 6.41477 17.7226C6.42013 17.6211 6.42428 17.5426 6.42428 17.4985C6.42428 17.2356 6.60307 15.9315 6.60307 15.9315L7.69682 11.4408C7.52855 11.1674 7.40235 10.5889 7.40235 10.1472C7.40235 8.10696 8.53816 7.66526 9.23227 7.66526C10.1157 7.66526 10.3155 8.62229 10.3155 9.32692C10.3155 9.69963 10.1222 10.283 9.92322 10.8834C9.71236 11.5196 9.49519 12.175 9.49519 12.6187C9.49519 13.4811 10.3471 13.9123 10.936 13.9123C12.4925 13.9123 13.9228 11.9561 13.9228 9.99999C13.9228 8.04386 13.0078 5.67758 10.0105 5.67758C7.01322 5.67758 5.66707 7.95973 5.66707 9.70552C5.66707 10.8834 6.10878 11.7458 6.32963 11.893C6.39273 11.9491 6.5 12.1223 6.42428 12.3663C6.34856 12.6103 6.21044 13.155 6.15084 13.3969C6.14383 13.453 6.07723 13.5484 5.86689 13.4811C5.60397 13.3969 3.93179 12.3452 3.93179 9.70552C3.93179 7.0658 6.00361 3.99489 10.0105 3.99489C14.0174 3.99489 16.0682 6.68719 16.0682 9.99999C16.0682 13.3128 13.3864 15.4267 11.3462 15.4267C9.71394 15.4267 9.07452 14.6975 8.95884 14.3329L8.33834 16.6992C8.19183 17.0918 7.91852 17.7973 7.58148 18.4115C8.3496 18.6319 9.16101 18.75 10 18.75Z" fill="#BB0F23"/>
</svg>
