<svg width="20" height="20" viewBox="0 0 20 20" fill="none" xmlns="http://www.w3.org/2000/svg">
<path d="M10 1.25C5.17383 1.25 1.25 5.17383 1.25 10C1.25 14.8262 5.17383 18.75 10 18.75C14.8262 18.75 18.75 14.8262 18.75 10C18.75 5.17383 14.8262 1.25 10 1.25Z" fill="#FC471E"/>
<path fill-rule="evenodd" clip-rule="evenodd" d="M12.512 5.56845C12.5041 5.61865 12.5 5.67016 12.5 5.72266C12.5 6.2527 12.9197 6.68239 13.4375 6.68239C13.9553 6.68239 14.375 6.2527 14.375 5.72266C14.375 5.19262 13.9553 4.76294 13.4375 4.76294C13.2068 4.76294 12.9955 4.84825 12.8322 4.98974L10.3976 4.375L9.51769 7.97818C8.34712 8.05703 7.29436 8.41994 6.50019 8.96782C6.2747 8.74143 5.96578 8.60183 5.625 8.60183C4.93464 8.60183 4.375 9.17475 4.375 9.88147C4.375 10.3733 4.64604 10.8003 5.04355 11.0145C5.01482 11.1671 5 11.3229 5 11.481C5 13.4245 7.23858 15 10 15C12.7614 15 15 13.4245 15 11.481C15 11.3229 14.9852 11.1671 14.9565 11.0145C15.354 10.8003 15.625 10.3733 15.625 9.88147C15.625 9.17475 15.0654 8.60183 14.375 8.60183C14.0342 8.60183 13.7253 8.74143 13.4998 8.96782C12.6346 8.37092 11.4624 7.99358 10.1654 7.96391L10.8524 5.15089L12.512 5.56845ZM7.8125 11.8009C8.33027 11.8009 8.75 11.3712 8.75 10.8412C8.75 10.3112 8.33027 9.88147 7.8125 9.88147C7.29473 9.88147 6.875 10.3112 6.875 10.8412C6.875 11.3712 7.29473 11.8009 7.8125 11.8009ZM12.1875 11.8009C12.7053 11.8009 13.125 11.3712 13.125 10.8412C13.125 10.3112 12.7053 9.88147 12.1875 9.88147C11.6697 9.88147 11.25 10.3112 11.25 10.8412C11.25 11.3712 11.6697 11.8009 12.1875 11.8009ZM7.98584 12.8144C7.84224 12.7164 7.64822 12.7561 7.55248 12.9031C7.45675 13.0501 7.49555 13.2487 7.63916 13.3467C8.31921 13.8108 9.1596 14.0429 10 14.0429C10.8404 14.0429 11.6808 13.8108 12.3608 13.3467C12.5044 13.2487 12.5433 13.0501 12.4475 12.9031C12.3518 12.7561 12.1578 12.7164 12.0142 12.8144C11.4391 13.2068 10.7195 13.4031 10 13.4031C9.57329 13.4031 9.14658 13.3341 8.75 13.196C8.47785 13.1013 8.21988 12.9741 7.98584 12.8144Z" fill="white"/>
</svg>
