<svg width="20" height="20" viewBox="0 0 20 20" fill="none" xmlns="http://www.w3.org/2000/svg">
<path d="M10.357 1.25636C5.52257 1.07413 1.45375 4.82807 1.25687 9.65351C1.06729 14.479 4.82256 18.5463 9.64973 18.7431C14.4769 18.9326 18.5457 15.1787 18.7426 10.3533C18.9395 5.52783 15.1842 1.45317 10.357 1.25636ZM14.0467 14.078C13.9008 14.3259 13.5873 14.4134 13.3321 14.2749C12.1727 13.6188 10.9039 13.1815 9.5841 12.9992C8.26429 12.8097 6.9226 12.8753 5.63195 13.1888C5.34757 13.2471 5.07048 13.0576 5.01944 12.7733C4.9684 12.5109 5.12882 12.2485 5.38403 12.1756C6.80593 11.833 8.27158 11.7601 9.72994 11.9642C11.1883 12.1683 12.5737 12.6421 13.8498 13.3637C14.0977 13.5095 14.1852 13.8229 14.0467 14.078ZM15.1988 11.782C15.0238 12.11 14.6082 12.2339 14.28 12.0589C12.9237 11.33 11.4508 10.8416 9.92682 10.6303C8.40283 10.4116 6.84968 10.4699 5.34757 10.8052C4.98298 10.8854 4.61839 10.6521 4.53818 10.2877C4.45797 9.92321 4.69131 9.55875 5.0559 9.47857C6.71843 9.11411 8.432 9.04851 10.1164 9.28905C11.8008 9.5223 13.4342 10.0544 14.929 10.8635C15.2571 11.0385 15.3811 11.4539 15.2061 11.782M16.4749 9.19429C16.2634 9.60249 15.7603 9.76285 15.3446 9.55146C13.7696 8.73507 12.0633 8.18838 10.2987 7.94055C8.54138 7.69272 6.7476 7.74374 5.00486 8.10091C4.55277 8.18838 4.11526 7.88953 4.02776 7.4376C3.94025 6.99296 4.23193 6.56289 4.66943 6.46813C6.59447 6.07452 8.57784 6.0162 10.5247 6.29319C12.4717 6.56289 14.3602 7.1679 16.1103 8.07176C16.5186 8.28314 16.679 8.7861 16.4676 9.20158" fill="#1ED760"/>
</svg>
