<svg width="20" height="20" viewBox="0 0 20 20" fill="none" xmlns="http://www.w3.org/2000/svg">
<g clip-path="url(#clip0_1116_6726)">
<path d="M6.29492 9.86512C6.29492 9.17507 6.46492 8.58505 6.80491 8.09507C7.1449 7.60509 7.6099 7.23516 8.19992 6.98514C8.73985 6.75512 9.40492 6.59023 10.195 6.49005C10.4649 6.46011 10.9049 6.4201 11.515 6.37001V6.11502C11.515 5.47505 11.445 5.04509 11.3049 4.82501C11.0949 4.5249 10.765 4.37505 10.3149 4.37505H10.195C9.86496 4.40499 9.57989 4.51 9.33993 4.68993C9.09998 4.87 8.94489 5.11989 8.87493 5.44C8.83491 5.63994 8.73501 5.75489 8.57495 5.78496L6.84989 5.57495C6.6799 5.53494 6.5949 5.44497 6.5949 5.30492C6.5949 5.27498 6.59987 5.23993 6.6098 5.20005C6.7798 4.31006 7.19727 3.65009 7.86234 3.22C8.52728 2.79017 9.30489 2.55009 10.195 2.5H10.57C11.7098 2.5 12.5999 2.79501 13.2402 3.38502C13.3403 3.48546 13.4332 3.59315 13.5176 3.70742C13.6023 3.82236 13.67 3.92495 13.7198 4.01492C13.7699 4.10488 13.815 4.235 13.8549 4.40486C13.895 4.57499 13.9248 4.69248 13.9451 4.75734C13.965 4.82233 13.98 4.96238 13.99 5.17749C13.9999 5.39247 14.0049 5.5199 14.0049 5.55991V9.18997C14.0049 9.44993 14.0423 9.68747 14.1174 9.90245C14.1924 10.1176 14.2651 10.2725 14.3348 10.3674C14.4047 10.4624 14.52 10.6151 14.6799 10.8248C14.7399 10.915 14.7698 10.9951 14.7698 11.065C14.7698 11.1451 14.73 11.2147 14.6497 11.2749C13.8198 11.995 13.3699 12.3851 13.2998 12.4451C13.1799 12.5351 13.0348 12.545 12.8647 12.4751C12.7249 12.3549 12.6025 12.2401 12.4973 12.13C12.3925 12.0201 12.3174 11.9401 12.2723 11.89C12.2274 11.8402 12.1548 11.7426 12.0549 11.5976C11.955 11.4525 11.8846 11.3549 11.8449 11.3051C11.2849 11.9151 10.7349 12.2951 10.195 12.4451C9.85489 12.545 9.43487 12.5951 8.93495 12.5951C8.16487 12.5951 7.53242 12.3574 7.03748 11.8825C6.5424 11.4074 6.29492 10.735 6.29492 9.86512ZM8.87493 9.56501C8.87493 9.95508 8.97255 10.2675 9.16739 10.5025C9.36249 10.7375 9.62487 10.855 9.95492 10.855C9.985 10.855 10.0274 10.85 10.0825 10.8401C10.1373 10.8299 10.1749 10.8249 10.195 10.8249C10.6149 10.7151 10.9398 10.4452 11.1699 10.0151C11.28 9.8251 11.3624 9.61764 11.4175 9.3926C11.4725 9.16768 11.5025 8.98506 11.5074 8.84501C11.5124 8.70509 11.5151 8.47508 11.5151 8.15509V7.78006C10.935 7.78006 10.4951 7.82007 10.1951 7.9001C9.31482 8.14999 8.87493 8.70496 8.87493 9.56501Z" fill="black"/>
<path d="M15.1749 14.3951C15.1951 14.355 15.225 14.3151 15.2652 14.2749C15.515 14.105 15.755 13.9901 15.985 13.9301C16.365 13.8302 16.7351 13.7752 17.095 13.7651C17.1951 13.7549 17.2901 13.7601 17.38 13.78C17.8301 13.8199 18.0999 13.8951 18.1901 14.0051C18.23 14.0651 18.2499 14.155 18.2499 14.2749V14.3801C18.2499 14.7299 18.1549 15.1425 17.9651 15.6175C17.7749 16.0924 17.51 16.4751 17.1699 16.7651C17.1201 16.805 17.075 16.8249 17.0351 16.8249C17.0149 16.8249 16.9949 16.8199 16.975 16.81C16.915 16.78 16.9 16.725 16.9299 16.6449C17.3 15.775 17.4849 15.17 17.4849 14.8298C17.4849 14.7199 17.465 14.6399 17.4251 14.5898C17.325 14.4699 17.0451 14.4099 16.5851 14.4099C16.4148 14.4099 16.215 14.4198 15.985 14.4398C15.7351 14.4701 15.5051 14.4999 15.295 14.5301C15.2349 14.5301 15.1951 14.5199 15.1748 14.4999C15.1549 14.48 15.1498 14.46 15.1599 14.4398C15.1599 14.43 15.1649 14.415 15.1749 14.3951ZM1.77994 14.1403C1.83003 14.0602 1.90992 14.0553 2.02003 14.1251C4.52001 15.5752 7.24007 16.3003 10.1799 16.3003C12.1401 16.3003 14.0751 15.9352 15.985 15.2051C16.0348 15.1852 16.1075 15.1553 16.2024 15.1151C16.2976 15.0752 16.365 15.0452 16.4049 15.0252C16.5549 14.9651 16.6724 14.9952 16.7574 15.1151C16.8427 15.2353 16.8151 15.3451 16.6751 15.445C16.4949 15.5752 16.2649 15.7251 15.985 15.8951C15.1251 16.4053 14.1649 16.8002 13.1049 17.0803C12.0451 17.3604 11.0099 17.5002 10 17.5002C8.43997 17.5002 6.96493 17.2277 5.57503 16.6827C4.18499 16.1376 2.93997 15.37 1.83997 14.3802C1.77994 14.3301 1.75 14.2801 1.75 14.2301C1.75 14.2 1.75994 14.1701 1.77994 14.1403Z" fill="#FF9900"/>
</g>
<defs>
<clipPath id="clip0_1116_6726">
<rect width="16.4999" height="15" fill="white" transform="translate(1.75 2.5)"/>
</clipPath>
</defs>
</svg>
