<svg width="20" height="20" viewBox="0 0 20 20" fill="none" xmlns="http://www.w3.org/2000/svg">
<path d="M7.21733 3.90505C7.39247 3.35997 7.72375 2.87828 8.17007 2.5197C8.6164 2.16113 9.15815 1.94142 9.72816 1.88784C10.2982 1.83426 10.8714 1.94914 11.3767 2.21826C11.882 2.48738 12.2973 2.89889 12.5709 3.40178C13.2711 4.68548 14.0151 5.94001 14.7445 7.20912C15.9552 9.32431 17.1806 11.4249 18.3841 13.5401C18.5699 13.8753 18.6879 14.2439 18.7312 14.6247C18.7746 15.0056 18.7426 15.3912 18.6369 15.7597C18.5313 16.1281 18.3541 16.4721 18.1155 16.7721C17.8768 17.0721 17.5815 17.3221 17.2462 17.5079C16.911 17.6937 16.5424 17.8117 16.1616 17.8551C15.7808 17.8985 15.3951 17.8664 15.0267 17.7608C14.6582 17.6551 14.3142 17.4779 14.0143 17.2393C13.7143 17.0007 13.4643 16.7053 13.2784 16.3701L10.0838 10.8122C10.0633 10.7733 10.0389 10.7367 10.0108 10.7028C9.89414 10.608 9.84308 10.4767 9.77744 10.36C9.30334 9.52124 8.81466 8.69705 8.34057 7.88015C8.04152 7.34041 7.7206 6.80797 7.42155 6.27552C7.15035 5.80384 7.01646 5.26572 7.03498 4.72195C7.04957 4.44479 7.08604 4.16033 7.21733 3.90505Z" fill="#3C8BD9"/>
<path d="M7.21733 3.90505C7.09562 4.3081 7.05871 4.73199 7.10892 5.15C7.15913 5.56802 7.29538 5.97111 7.50908 6.33387L9.8212 10.3454L10.0181 10.7028L8.74172 12.891L6.96205 15.9689C6.93287 15.9689 6.92558 15.9543 6.91828 15.9325C6.91828 15.8741 6.93287 15.8303 6.94746 15.772C7.23921 14.7144 6.99851 13.7735 6.26914 12.9712C5.8368 12.4982 5.24952 12.1955 4.61346 12.1178C4.21365 12.0565 3.80538 12.0807 3.41561 12.1888C3.02585 12.2969 2.66346 12.4865 2.35239 12.7451C2.2284 12.8399 2.15546 12.9712 2.00958 13.0368C1.9877 13.0368 1.97312 13.0295 1.96582 13.0077L7.16627 3.97799L7.21733 3.90505Z" fill="#FABC04"/>
<path d="M1.9877 13.0295C2.12628 12.9055 2.25028 12.7816 2.39615 12.6649C2.89387 12.2768 3.504 12.0606 4.13502 12.0487C4.76603 12.0367 5.38389 12.2298 5.8959 12.5988C6.4079 12.9678 6.78645 13.4929 6.97473 14.0953C7.16302 14.6976 7.15089 15.3448 6.94016 15.9398C6.94016 15.9835 6.92558 16.0127 6.91099 16.0565C6.84535 16.1732 6.79429 16.2899 6.72135 16.4066C6.45609 16.8964 6.05251 17.2973 5.56094 17.5593C5.06936 17.8213 4.51154 17.9328 3.95702 17.8799C3.45979 17.8474 2.97934 17.6872 2.56216 17.4147C2.14497 17.1422 1.80517 16.7667 1.5756 16.3244C1.34604 15.8822 1.23449 15.3882 1.25174 14.8902C1.26899 14.3922 1.41445 13.9071 1.67407 13.4818C1.74701 13.3505 1.82724 13.2411 1.90747 13.1171C1.94394 13.0879 1.92935 13.0295 1.9877 13.0295Z" fill="#34A852"/>
<path d="M1.9877 13.0295C1.96582 13.0587 1.96582 13.1025 1.91477 13.1098C1.90747 13.066 1.93665 13.0368 1.96582 13.0004L1.995 13.0295H1.9877Z" fill="#FABC04"/>
<path d="M6.91099 16.0565C6.88181 16.0127 6.91099 15.9762 6.94016 15.9398L6.96934 15.9689L6.91099 16.0565Z" fill="#E1C025"/>
</svg>
