<svg width="20" height="20" viewBox="0 0 20 20" fill="none" xmlns="http://www.w3.org/2000/svg">
<path d="M10.138 18.75H10.1327C7.47539 18.7325 5.43254 17.8715 4.05937 16.1915C2.83936 14.6952 2.20887 12.6145 2.1875 10.007V9.99475C2.20887 7.3855 2.83936 5.3065 4.06115 3.81025C5.43254 2.1285 7.47717 1.2675 10.1327 1.25H10.138H10.1434C12.1809 1.264 13.8853 1.7785 15.2086 2.7795C16.4536 3.721 17.3298 5.0615 17.8125 6.766L16.2986 7.18075C15.4793 4.29325 13.4062 2.818 10.1362 2.79525C7.97764 2.811 6.34443 3.47775 5.28294 4.77625C4.2909 5.9925 3.77796 7.7495 3.75837 10C3.77796 12.2505 4.2909 14.0075 5.28472 15.2238C6.34621 16.524 7.97942 17.1908 10.138 17.2048C12.0847 17.1908 13.3724 16.7445 14.4428 15.7138C15.6646 14.5378 15.6432 13.094 15.2514 12.2155C15.0216 11.6975 14.6031 11.267 14.0385 10.9398C13.896 11.925 13.5772 12.723 13.0856 13.325C12.4284 14.1283 11.497 14.5675 10.3179 14.6305C9.42562 14.6777 8.56538 14.4713 7.89927 14.046C7.11027 13.5438 6.64899 12.7773 6.59912 11.8848C6.55103 11.0168 6.90189 10.2187 7.58581 9.63775C8.23945 9.083 9.15846 8.7575 10.2449 8.69625C11.0446 8.6525 11.7944 8.6875 12.4854 8.7995C12.3928 8.25875 12.2076 7.82825 11.9297 7.5185C11.5486 7.0915 10.9591 6.8745 10.179 6.86925C10.1719 6.86925 10.1647 6.86925 10.1576 6.86925C9.5307 6.86925 8.67936 7.039 8.13793 7.83175L6.83421 6.9725C7.56088 5.912 8.73992 5.3275 10.1576 5.3275C10.1683 5.3275 10.179 5.3275 10.1897 5.3275C12.5602 5.3415 13.9726 6.76775 14.1133 9.25625C14.1934 9.2895 14.2736 9.3245 14.352 9.3595C15.458 9.8705 16.2666 10.644 16.6922 11.5977C17.2835 12.926 17.3387 15.0907 15.5435 16.818C14.1703 18.1375 12.505 18.7343 10.1434 18.75H10.138ZM10.8825 10.2258C10.7026 10.2258 10.521 10.231 10.3339 10.2415C8.97145 10.3167 8.1219 10.931 8.16999 11.8042C8.21986 12.7195 9.24751 13.1448 10.236 13.0923C11.1443 13.045 12.3269 12.6967 12.5264 10.3867C12.0241 10.28 11.4738 10.2258 10.8825 10.2258Z" fill="black"/>
</svg>
