<svg width="20" height="20" viewBox="0 0 20 20" fill="none" xmlns="http://www.w3.org/2000/svg">
<path d="M5.2816 12.3705C5.37927 11.5618 5.71094 11.109 6.33596 10.6449C7.23024 10.0162 8.34734 10.3718 8.34734 10.3718V8.26234C8.61892 8.2554 8.8906 8.2715 9.15922 8.31045V11.0251C9.15922 11.0251 8.04246 10.6696 7.14817 11.2985C6.5235 11.7623 6.19115 12.2154 6.09382 13.0241C6.09077 13.4632 6.17318 14.0372 6.55266 14.5336C6.45884 14.4855 6.3632 14.4306 6.26576 14.3691C5.4298 13.8078 5.27753 12.9656 5.2816 12.3705ZM13.7717 4.36192C13.1565 3.6878 12.9239 3.00718 12.8398 2.52905H13.6137C13.6137 2.52905 13.4594 3.78271 14.5839 5.01557L14.5995 5.03215C14.2965 4.8415 14.0185 4.61646 13.7717 4.36192ZM17.4998 6.27313V8.93322C17.4998 8.93322 16.5122 8.89454 15.7814 8.70862C14.761 8.44859 14.1051 8.04977 14.1051 8.04977C14.1051 8.04977 13.652 7.76537 13.6154 7.74554V13.2386C13.6154 13.5445 13.5316 14.3083 13.2763 14.9454C12.9429 15.7788 12.4284 16.3258 12.3338 16.4376C12.3338 16.4376 11.7081 17.1771 10.6043 17.675C9.60924 18.1242 8.73564 18.1129 8.47451 18.1242C8.47451 18.1242 6.96437 18.184 5.60547 17.3009C5.31162 17.1063 5.03732 16.8858 4.78613 16.6424L4.79292 16.6473C6.15215 17.5304 7.66196 17.4706 7.66196 17.4706C7.92343 17.4592 8.79703 17.4706 9.7917 17.0214C10.8945 16.5234 11.5213 15.784 11.5213 15.784C11.6149 15.6722 12.1317 15.1251 12.4637 14.2914C12.7184 13.6547 12.8028 12.8905 12.8028 12.5847V7.09222C12.8395 7.11237 13.2922 7.39678 13.2922 7.39678C13.2922 7.39678 13.9484 7.79592 14.9689 8.05562C15.7 8.24154 16.6872 8.28022 16.6872 8.28022V6.19577C17.025 6.27151 17.3129 6.29198 17.4998 6.27313Z" fill="#EE1D52"/>
<path d="M16.688 6.19577V8.27957C16.688 8.27957 15.7008 8.24089 14.9697 8.05497C13.9492 7.79494 13.293 7.39613 13.293 7.39613C13.293 7.39613 12.8403 7.11172 12.8036 7.09157V12.5853C12.8036 12.8912 12.7199 13.6553 12.4645 14.2921C12.1311 15.1258 11.6167 15.6728 11.5221 15.7846C11.5221 15.7846 10.896 16.5241 9.7925 17.022C8.79783 17.4712 7.92423 17.4599 7.66276 17.4712C7.66276 17.4712 6.15295 17.531 4.79372 16.6479L4.78694 16.643C4.64343 16.5041 4.50835 16.3574 4.38235 16.2036C3.94861 15.6748 3.68273 15.0494 3.61592 14.871C3.6158 14.8702 3.6158 14.8694 3.61592 14.8687C3.50842 14.5586 3.28256 13.8139 3.31342 13.0927C3.36802 11.8202 3.81567 11.0391 3.93402 10.8434C4.24748 10.3099 4.65518 9.83245 5.13895 9.43247C5.56586 9.08732 6.04975 8.81271 6.57076 8.61988C7.134 8.39348 7.73713 8.27214 8.34781 8.26234V10.3718C8.34781 10.3718 7.23071 10.0175 6.33676 10.6449C5.71175 11.109 5.38008 11.5618 5.28241 12.3705C5.27834 12.9656 5.43061 13.8078 6.26588 14.3694C6.36333 14.4312 6.45896 14.486 6.55279 14.5339C6.69871 14.7236 6.87632 14.8889 7.07844 15.0231C7.89439 15.5396 8.57808 15.5756 9.45235 15.2402C10.0353 15.0159 10.4742 14.5105 10.6776 13.9505C10.8055 13.6007 10.8038 13.2487 10.8038 12.8847V2.52905H12.8386C12.9227 3.00718 13.1553 3.6878 13.7705 4.36192C14.0173 4.61646 14.2952 4.8415 14.5983 5.03215C14.6878 5.12478 15.1457 5.58276 15.7334 5.86391C16.0373 6.00924 16.3576 6.12059 16.688 6.19577V6.19577Z" fill="black"/>
<path d="M2.80566 14.2231V14.2248L2.85615 14.3616C2.85035 14.3457 2.83159 14.2973 2.80566 14.2231Z" fill="#69C9D0"/>
<path d="M6.57051 8.6199C6.0495 8.81272 5.56561 9.08734 5.1387 9.43249C4.65477 9.83337 4.24718 10.3118 3.93411 10.8464C3.81576 11.0414 3.3681 11.8231 3.3135 13.0956C3.28264 13.8169 3.5085 14.5615 3.61601 14.8716C3.61589 14.8724 3.61589 14.8731 3.61601 14.8739C3.68383 15.0507 3.94869 15.6761 4.38244 16.2065C4.50844 16.3603 4.64352 16.507 4.78702 16.646C4.32723 16.3412 3.91716 15.9727 3.57023 15.5526C3.14021 15.0283 2.87501 14.4094 2.80583 14.2268C2.80574 14.2255 2.80574 14.2242 2.80583 14.2229V14.2206C2.69798 13.9108 2.47144 13.1658 2.50298 12.4436C2.55758 11.1711 3.00523 10.39 3.12359 10.1944C3.43657 9.6597 3.84417 9.18128 4.32818 8.78047C4.755 8.4352 5.23891 8.16057 5.75999 7.96788C6.08501 7.83863 6.42361 7.74328 6.76992 7.68348C7.29183 7.59616 7.82487 7.58859 8.34925 7.66105V8.26236C7.738 8.27195 7.13428 8.3933 6.57051 8.6199Z" fill="#69C9D0"/>
<path d="M12.8399 2.52897H10.8051V12.8849C10.8051 13.2489 10.8051 13.6 10.6789 13.9507C10.4734 14.5104 10.0363 15.0158 9.45365 15.2401C8.57904 15.5768 7.89535 15.5395 7.07974 15.023C6.87727 14.8894 6.69921 14.7246 6.55273 14.5354C7.24761 14.8907 7.86958 14.8845 8.64008 14.5881C9.22237 14.3638 9.66018 13.8584 9.86502 13.2984C9.99321 12.9486 9.99151 12.5966 9.99151 12.2329V1.875H12.8012C12.8012 1.875 12.7697 2.13243 12.8399 2.52897ZM16.6876 5.6194V6.19569C16.3578 6.12039 16.038 6.00904 15.7347 5.86383C15.147 5.58267 14.6891 5.1247 14.5996 5.03206C14.7035 5.09744 14.8113 5.15691 14.9225 5.21018C15.637 5.55212 16.3407 5.65418 16.6876 5.6194Z" fill="#69C9D0"/>
</svg>
